<?xml version="1.0" encoding="UTF-8" standalone="no"?>
<!-- Created with Inkscape (http://www.inkscape.org/) -->

<svg
   xmlns:dc="http://purl.org/dc/elements/1.1/"
   xmlns:cc="http://creativecommons.org/ns#"
   xmlns:rdf="http://www.w3.org/1999/02/22-rdf-syntax-ns#"
   xmlns:svg="http://www.w3.org/2000/svg"
   xmlns="http://www.w3.org/2000/svg"
   xmlns:sodipodi="http://sodipodi.sourceforge.net/DTD/sodipodi-0.dtd"
   xmlns:inkscape="http://www.inkscape.org/namespaces/inkscape"
   width="256"
   height="256"
   id="svg2"
   version="1.1"
   inkscape:version="0.48.4 r9939"
   inkscape:export-filename="/home/aforemny/src/magic/plus.png"
   inkscape:export-xdpi="22.5"
   inkscape:export-ydpi="22.5"
   sodipodi:docname="icons.svg">
  <defs
     id="defs4" />
  <sodipodi:namedview
     id="base"
     pagecolor="#ffffff"
     bordercolor="#666666"
     borderopacity="1.0"
     inkscape:pageopacity="0.0"
     inkscape:pageshadow="2"
     inkscape:zoom="0.80378154"
     inkscape:cx="-16.205684"
     inkscape:cy="604.35482"
     inkscape:document-units="px"
     inkscape:current-layer="g3986"
     showgrid="false"
     inkscape:window-width="1364"
     inkscape:window-height="748"
     inkscape:window-x="0"
     inkscape:window-y="18"
     inkscape:window-maximized="0" />
  <metadata
     id="metadata7">
    <rdf:RDF>
      <cc:Work
         rdf:about="">
        <dc:format>image/svg+xml</dc:format>
        <dc:type
           rdf:resource="http://purl.org/dc/dcmitype/StillImage" />
        <dc:title></dc:title>
      </cc:Work>
    </rdf:RDF>
  </metadata>
  <g
     inkscape:label="Ebene 1"
     inkscape:groupmode="layer"
     id="layer1"
     transform="translate(0,-796.36218)">
    <g
       id="g3879"
       inkscape:export-filename="/home/aforemny/src/magic/miniplus.png"
       inkscape:export-xdpi="11.249871"
       inkscape:export-ydpi="11.249871">
      <path
         id="rect3773"
         d="m 115.71875,848.61218 c -3.39814,0 -6.125,2.12726 -6.125,4.75 l 0,52.59375 -52.59375,0 c -2.62274,0 -4.75,2.72686 -4.75,6.125 l 0,24.5625 c 0,3.39814 2.12726,6.125 4.75,6.125 l 52.59375,0 0,52.59375 c 0,2.62274 2.72686,4.75002 6.125,4.75002 l 24.5625,0 c 3.39814,0 6.125,-2.12728 6.125,-4.75002 l 0,-52.59375 52.59375,0 c 2.62274,0 4.75,-2.72686 4.75,-6.125 l 0,-24.5625 c 0,-3.39814 -2.12726,-6.125 -4.75,-6.125 l -52.59375,0 0,-52.59375 c 0,-2.62274 -2.72686,-4.75 -6.125,-4.75 l -24.5625,0 z"
         style="fill:#eeeeec;fill-opacity:0.50000000000000000;stroke:none"
         inkscape:connector-curvature="0" />
      <rect
         y="796.36365"
         x="-0.0030724138"
         height="256"
         width="256"
         id="rect3819"
         style="fill:#ffffff;fill-opacity:0;stroke:none" />
      <path
         inkscape:connector-curvature="0"
         id="path3815"
         d="m 128.00307,796.3607 c -70.692444,0 -127.99999314,57.30756 -127.99999314,128 0,70.69245 57.30754914,128 127.99999314,128 70.69246,0 128,-57.30755 128,-128 0,-70.69244 -57.30754,-128 -128,-128 z m 0,32 c 53.01934,0 96,42.98067 96,96 0,53.01933 -42.98066,96 -96,96 -53.019334,0 -95.999994,-42.98067 -95.999994,-96 0,-53.01933 42.98066,-96 95.999994,-96 z"
         style="fill:#eeeeec;fill-opacity:0.50196081;stroke:none" />
    </g>
    <g
       id="g3884"
       inkscape:export-filename="/home/aforemny/src/magic/miniminus.png"
       inkscape:export-xdpi="11.249871"
       inkscape:export-ydpi="11.249871">
      <rect
         transform="matrix(0,1,-1,0,0,0)"
         y="149.58284"
         x="905.96069"
         height="151.49399"
         width="36.802929"
         id="rect3846"
         style="fill:#eeeeec;fill-opacity:0.50000000000000000;stroke:none"
         rx="6.1338215"
         ry="4.7341871"
         inkscape:export-filename="/home/aforemny/src/magic/plus.png"
         inkscape:export-xdpi="8"
         inkscape:export-ydpi="8" />
      <rect
         style="fill:#ffffff;fill-opacity:0;stroke:none"
         id="rect3850"
         width="256"
         height="256"
         x="-353.33292"
         y="796.36365" />
      <path
         style="fill:#eeeeec;fill-opacity:0.50196081000000004;stroke:none"
         d="m -225.32677,796.3607 c -70.69245,0 -128,57.30756 -128,128 0,70.69245 57.30755,128 128,128 70.69246,0 128,-57.30755 128,-128 0,-70.69244 -57.30754,-128 -128,-128 z m 0,32 c 53.01934,0 96,42.98067 96,96 0,53.01933 -42.98066,96 -96,96 -53.01934,0 -96,-42.98067 -96,-96 0,-53.01933 42.98066,-96 96,-96 z"
         id="path3852"
         inkscape:connector-curvature="0" />
    </g>
    <g
       id="g3917"
       inkscape:export-filename="/home/aforemny/src/magic/flip.png"
       inkscape:export-xdpi="11.25"
       inkscape:export-ydpi="11.25">
      <rect
         y="485.33093"
         x="-343.37997"
         height="256"
         width="256"
         id="rect3893"
         style="fill:#ffffff;fill-opacity:0;stroke:none" />
      <path
         inkscape:connector-curvature="0"
         id="path3900"
         d="m -215.36488,485.33093 c -19.45058,0 -106.98896,63.47769 -97.26367,70.53221 3.3097,2.40078 25.91552,3.98967 54.48834,4.75639 l 0,105.4228 c -28.57282,0.76672 -51.17864,2.35561 -54.48834,4.75639 -9.72529,7.05452 77.81309,70.53221 97.26367,70.53221 19.45058,0 106.95853,-63.47769 97.23324,-70.53221 -3.38579,-2.45599 -26.95535,-4.04177 -56.46586,-4.78768 l 0,-105.36022 c 29.51051,-0.74591 53.08007,-2.33169 56.46586,-4.78768 9.72529,-7.05452 -77.78266,-70.53221 -97.23324,-70.53221 z"
         style="fill:#eeeeec;fill-opacity:0.50196078;stroke:none" />
    </g>
    <g
       id="g3946"
       transform="translate(18.661787,-33.591217)"
       inkscape:export-filename="/home/aforemny/src/magic/undo.png"
       inkscape:export-xdpi="11.25"
       inkscape:export-ydpi="11.25">
      <rect
         style="fill:#ffffff;fill-opacity:0;stroke:none"
         id="rect3923"
         width="256"
         height="256"
         x="-8.7119246"
         y="485.33093" />
      <path
         inkscape:connector-curvature="0"
         id="path3935"
         d="m 127.05712,485.33093 c -29.61449,0 -59.213046,11.565 -82.322979,34.72084 -18.88204,-19.74632 -35.1286575,-34.7137 -39.5464895,-34.63112 -12.2110607,0.22826 -19.6442485,116.98614 -8.2575765,129.7321 11.3866765,12.74598 121.297875,10.70137 122.122255,-2.27285 0.31417,-4.94433 -14.3893,-24.68854 -33.367351,-47.19163 23.908001,-23.58472 61.241281,-23.01521 84.485681,1.73455 23.80468,25.34632 23.80468,66.46501 0,91.81133 -12.0382,12.81782 -27.86969,19.13661 -43.64719,18.9903 l -0.50556,63.10159 c 32.24678,0.29965 63.25576,-13.19263 86.05854,-37.47217 46.94884,-49.98935 46.94883,-131.06143 0,-181.05076 -23.4744,-24.99466 -54.25235,-37.47218 -85.01933,-37.47218 z"
         style="fill:#eeeeec;fill-opacity:0.50196078;stroke:none" />
    </g>
    <g
       id="g3986"
       inkscape:export-filename="/home/aforemny/src/magic/reset.png"
       inkscape:export-xdpi="22.5"
       inkscape:export-ydpi="22.5">
      <g
         id="g3087"
         inkscape:export-filename="/home/aforemny/src/magic/reset.png"
         inkscape:export-xdpi="11.25"
         inkscape:export-ydpi="11.25">
        <rect
           style="fill:#ffffff;fill-opacity:0;stroke:none"
           id="rect3952"
           width="256"
           height="256"
           x="-313.52112"
           y="153.15112" />
        <text
           xml:space="preserve"
           style="font-size:155.88732909999998810px;font-style:normal;font-variant:normal;font-weight:normal;font-stretch:normal;line-height:125%;letter-spacing:0px;word-spacing:0px;fill:#eeeeec;fill-opacity:0.50196081;stroke:none;font-family:Norican;-inkscape-font-specification:Norican"
           x="-463.56555"
           y="233.21222"
           id="text3958"
           sodipodi:linespacing="125%"
           transform="scale(0.64782885,1.5436176)"><tspan
             sodipodi:role="line"
             id="tspan3960"
             x="-463.56555"
             y="233.21222"
             style="fill:#eeeeec;font-family:Liberation Serif;-inkscape-font-specification:Liberation Serif;fill-opacity:0.50196081">20</tspan></text>
        <text
           transform="scale(0.64782885,1.5436176)"
           sodipodi:linespacing="125%"
           id="text3962"
           y="233.21222"
           x="-265.98251"
           style="font-size:155.88732909999998810px;font-style:normal;font-variant:normal;font-weight:normal;font-stretch:normal;line-height:125%;letter-spacing:0px;word-spacing:0px;fill:#eeeeec;fill-opacity:0.50196081;stroke:none;font-family:Norican;-inkscape-font-specification:Norican"
           xml:space="preserve"><tspan
             style="fill:#eeeeec;font-family:Liberation Serif;-inkscape-font-specification:Liberation Serif;fill-opacity:0.50196081"
             y="233.21222"
             x="-265.98251"
             id="tspan3964"
             sodipodi:role="line">20</tspan></text>
        <rect
           style="fill:#eeeeec;fill-opacity:0.50196081;stroke:none"
           id="rect3966"
           width="12.441193"
           height="256"
           x="-191.74171"
           y="153.15112"
           rx="3.0769234"
           ry="9.0447502" />
      </g>
    </g>
    <g
       id="g4016"
       inkscape:export-filename="/home/aforemny/src/magic/miniplus.png"
       inkscape:export-xdpi="22.5"
       inkscape:export-ydpi="22.5">
      <path
         inkscape:connector-curvature="0"
         style="fill:#eeeeec;fill-opacity:0.5;stroke:none"
         d="m 125.59173,1176.3669 c -1.69907,0 -3.0625,1.0637 -3.0625,2.375 l 0,26.2969 -26.296872,0 c -1.31137,0 -2.375,1.3634 -2.375,3.0625 l 0,12.2813 c 0,1.699 1.06363,3.0625 2.375,3.0625 l 26.296872,0 0,26.2968 c 0,1.3114 1.36343,2.3751 3.0625,2.3751 l 12.28125,0 c 1.69907,0 3.0625,-1.0637 3.0625,-2.3751 l 0,-26.2968 26.29688,0 c 1.31137,0 2.375,-1.3635 2.375,-3.0625 l 0,-12.2813 c 0,-1.6991 -1.06363,-3.0625 -2.375,-3.0625 l -26.29688,0 0,-26.2969 c 0,-1.3113 -1.36343,-2.375 -3.0625,-2.375 l -12.28125,0 z"
         id="path3996" />
      <rect
         style="fill:#ffffff;fill-opacity:0;stroke:none"
         id="rect3998"
         width="256"
         height="256"
         x="3.729285"
         y="1086.2434" />
    </g>
    <g
       id="g4020"
       inkscape:export-filename="/home/aforemny/src/magic/miniminus.png"
       inkscape:export-xdpi="22.5"
       inkscape:export-ydpi="22.5">
      <rect
         inkscape:export-ydpi="8"
         inkscape:export-xdpi="8"
         inkscape:export-filename="/home/aforemny/src/magic/plus.png"
         ry="2.3670936"
         rx="3.0669107"
         style="fill:#eeeeec;fill-opacity:0.5;stroke:none"
         id="rect4004"
         width="18.401464"
         height="75.746994"
         x="1193.8434"
         y="189.94304"
         transform="matrix(0,1,-1,0,0,0)" />
      <rect
         y="1075.0464"
         x="-355.82117"
         height="256"
         width="256"
         id="rect4006"
         style="fill:#ffffff;fill-opacity:0;stroke:none" />
    </g>
  </g>
</svg>
